# xmcd
#
# Track frame offsets:
#	150
#	16994
#	40228
#	56356
#	67594
#	77258
#	92895
#	105825
#	123152
#	133253
#	150986
#	167706
#	183100
#	199859
#
# Disc length: 2901 seconds
#
# Revision: 0
# Processed by: cddbd v1.4PL0 Copyright (c) Steve Scherf et al.
# Submitted via: audiograbber 1.82.02
#
DISCID=9c0b530e
DTITLE=Seraphim Music Group - Christmas with Family and Friends
DYEAR=2003
DGENRE=Christian
TTITLE0=The Nelons - Heaven Sent Help
TTITLE1=Dixie Melody Boys - Our Favorites Medley
TTITLE2=David Hill - Mary Did You Know?
TTITLE3=The Spencers - Home and Christmas
TTITLE4=The Believers - Joy To The World
TTITLE5=The Melody Trio - From A Manger To The Cross
TTITLE6=Forgiven - C.H.R.I.S.T.M.A.S.
TTITLE7=Buddy Liles - O Holy Night
TTITLE8=The Believers - Mama, There's A Baby
TTITLE9=The Nelons - Rest On Me
TTITLE10=Seraphim Family Of Artists - Featuring David Hill and The Nelons - His
TTITLE10=Name Is Jesus
TTITLE11=Dixie Melody Boys - Little Bitty Baby Of Bethlehem
TTITLE12=Forgiven - King of Kings
TTITLE13=The Believers - The Christmas Song
EXTD=
EXTT0=
EXTT1=
EXTT2=
EXTT3=
EXTT4=
EXTT5=
EXTT6=
EXTT7=
EXTT8=
EXTT9=
EXTT10=
EXTT11=
EXTT12=
EXTT13=
PLAYORDER=
